<?xml version="1.0" encoding="utf-8"?>
<!-- Generator: Adobe Illustrator 27.0.0, SVG Export Plug-In . SVG Version: 6.00 Build 0)  -->
<svg version="1.1" id="Layer_1" xmlns="http://www.w3.org/2000/svg" xmlns:xlink="http://www.w3.org/1999/xlink" x="0px" y="0px"
	 viewBox="0 0 191.32 162.86" style="enable-background:new 0 0 191.32 162.86;" xml:space="preserve">
<style type="text/css">
	.st0{fill:#FFFFFF;}
</style>
<g>
	<path class="st0" d="M84.98,40.75c-7.34-4.92-11.21-11.43-10.89-20.06c0.22-5.89,2.62-10.83,6.87-14.91
		c8.42-8.08,22.42-7.6,30.64,0.87c7.24,7.45,10.04,23.82-4.78,34.18c2.61,1.15,5.07,2.22,7.52,3.31
		c8.91,3.96,13.39,10.89,13.63,20.56c0.12,4.92,0.01,9.84,0.02,14.76c0.01,2.74-0.76,5.21-2.36,7.45c-2.04,2.86-3.95,5.81-6.04,8.64
		c-4.69,6.35-7.05,13.46-7.49,21.32c-0.78,13.87-1.67,27.73-2.5,41.6c-0.26,4.32-0.26,4.32-4.63,4.32c-6.64,0-13.28-0.11-19.92,0.06
		c-2.33,0.06-2.86-0.8-2.98-2.92c-0.83-14.57-1.82-29.13-2.66-43.7c-0.45-7.8-3.18-14.66-7.62-21.04
		c-9.91-14.26-7.92-8.62-8.1-25.51c-0.04-4.12-0.38-8.28,1.05-12.3c2.2-6.15,6.26-10.52,12.24-13.14
		C79.55,43.14,82.09,42.02,84.98,40.75z"/>
	<path class="st0" d="M39.16,120.26c-0.95,1.57-1.09,3.13-1.19,4.65c-0.79,11.91-1.58,23.82-2.25,35.74
		c-0.1,1.71-0.54,2.22-2.29,2.18c-5.54-0.12-11.1-0.11-16.64-0.01c-1.67,0.03-2.24-0.35-2.34-2.15
		c-0.64-11.53-1.46-23.05-2.15-34.58c-0.34-5.62-2.28-10.59-5.43-15.22c-8.22-12.06-6.4-7.06-6.85-21.46
		c-0.31-9.94,3.64-16.65,13.11-19.98c0.95-0.34,1.86-0.81,2.78-1.23c0.14-0.06,0.27-0.16,0.4-0.24c-0.02-0.68-0.63-0.84-1.04-1.15
		c-5.79-4.3-8-10.16-6.72-17.09c1.21-6.51,5.27-10.98,11.65-12.83c6.71-1.95,12.73-0.35,17.45,4.92c1.31,1.46,1.71,1.11,2.81-0.11
		c6.56-7.3,17.84-7.43,24.61-0.42c0.9,0.93,1.25,1.51,0.12,2.61c-5.93,5.74-8.63,12.89-8.71,21.03c-0.05,5.46-0.21,10.93,0.14,16.39
		c0.22,3.37,1.31,6.39,3.22,9.15c2.4,3.46,4.83,6.91,7.19,10.4c0.83,1.22,1.56,2.52,2.25,3.83c1.68,3.2,2.56,6.13-0.08,9.63
		c-2.55,3.38-3.23,7.73-3.49,11.99c-0.69,11.22-1.43,22.43-2,33.65c-0.12,2.32-0.86,2.97-3.18,2.88c-5.23-0.2-10.47-0.14-15.7-0.01
		c-1.82,0.05-2.42-0.53-2.51-2.3c-0.47-8.65-0.98-17.3-1.59-25.94C40.38,129.88,40.59,125.1,39.16,120.26z M44.4,67.83
		c-1.73-1.39-3.46-2.71-4.79-4.44c-0.51-0.66-0.9-0.4-1.27,0.13c-1.21,1.73-3.01,2.87-4.59,4.29C38.66,70.6,39.1,70.6,44.4,67.83z"
		/>
	<path class="st0" d="M175.33,68.03c1.94,0.84,3.93,1.67,5.88,2.57c6.65,3.1,10.16,8.3,10.27,15.67c0.06,3.9-0.03,7.81,0.03,11.72
		c0.03,2.2-0.59,4.12-1.86,5.91c-2.25,3.19-4.52,6.37-6.59,9.68c-2.54,4.06-3.56,8.62-3.85,13.35c-0.68,11.06-1.4,22.12-1.96,33.19
		c-0.11,2.08-0.65,2.8-2.83,2.73c-5.39-0.17-10.78-0.14-16.17-0.01c-1.77,0.04-2.22-0.54-2.31-2.21
		c-0.65-11.37-1.41-22.73-2.13-34.1c-0.13-2.09-0.36-4.16-1.22-6.43c-1.42,3.93-1.24,7.79-1.51,11.56
		c-0.7,9.81-1.3,19.62-1.86,29.43c-0.08,1.32-0.45,1.74-1.77,1.72c-5.86-0.06-11.72-0.06-17.58,0c-1.31,0.01-1.75-0.39-1.83-1.7
		c-0.61-10.6-1.37-21.18-1.89-31.78c-0.31-6.36-1.47-12.39-5.2-17.69c-0.69-0.98-0.52-1.87-0.21-2.87c0.94-3,2.34-5.78,4.14-8.35
		c2.37-3.39,4.76-6.77,7.08-10.19c2.07-3.04,3.15-6.4,3.12-10.13c-0.05-5.15-0.04-10.31-0.01-15.47c0.05-7.98-2.74-14.82-8.32-20.46
		c-1.28-1.29-1.16-1.99,0.02-3.16c6.83-6.82,18.18-6.45,24.64,0.93c0.85,0.97,1.2,1.43,2.32,0.14c4.64-5.33,10.58-7.11,17.34-5.28
		c6.71,1.82,10.87,6.42,12.09,13.23c1.22,6.81-1.18,12.43-6.65,16.71C176.08,67.06,175.48,67.2,175.33,68.03z M147.29,67.73
		c4.79,2.9,6.52,2.88,10.55-0.11c-1.99-1.3-3.67-2.9-5.28-4.93C151.08,64.76,149.24,66.26,147.29,67.73z"/>
</g>
</svg>
