<?xml version="1.0" encoding="utf-8"?>
<!-- Generator: Adobe Illustrator 27.0.0, SVG Export Plug-In . SVG Version: 6.00 Build 0)  -->
<svg version="1.1" xmlns="http://www.w3.org/2000/svg" xmlns:xlink="http://www.w3.org/1999/xlink" x="0px" y="0px"
	 viewBox="0 0 1096.97 850.39" style="enable-background:new 0 0 1096.97 850.39;" xml:space="preserve">
<g id="Layer_2">
</g>
<g id="Layer_3">
	<g>
		<path d="M616.33,850.35c16.11-78.98,31.53-154.53,46.59-228.36c-38.74-19.29-76.5-35.7-111.86-56.24
			c-60.01-34.86-106.66-83.61-137.78-146.09c-5.56-11.17-12.2-14.84-24.21-13.26c-26.31,3.46-52.82,5.45-79.1,9.14
			c-7.58,1.06-15.29,4.85-21.84,9.08c-59.22,38.27-122.59,18.18-150.64-50.09c13.91-5.73,27.86-11.47,41.49-17.08
			c35.69,42.96,76.74,46.81,117.02-9.22c49.33-68.62,59.17-146.3,36.13-227.59c-3.15-11.12-9.28-21.7-15.51-31.59
			c-24.87-39.43-48.22-43.78-96.38-18.03c-11.48-8.21-23.4-16.73-35.25-25.21C210.11-3.32,284-16.03,328.03,22.91
			c60.74,53.73,132.14,85.1,209.51,104.13c40.4,9.93,74.75,26.43,96.74,63.59c3.45,5.82,10.67,9.5,16.36,13.88
			c50.84,39.18,47.96,113.23-5.27,148.59c-22.32,14.83-43.52,31.33-66.36,47.88c26.77,30.36,60.42,46.18,96.77,56.66
			c17.61,5.08,36.25,6.51,54.09,10.95c7.14,1.78,15.02,5.75,19.75,11.18c21.79,25.02,42.58,50.91,65.55,78.69
			c28.02-20.9,55.95-40.91,82.88-62.18c12.21-9.65,24.33-13.53,38.74-7.74c31.26,12.55,65.02,21.28,93.03,39.02
			c58.35,36.97,74.7,95.33,64.12,160.41c-8.14,50.05-21.51,99.28-33.66,148.6c-1.35,5.48-9.82,12.95-15.17,13.1
			c-39.76,1.11-79.57,0.6-123.01,0.6c9.68-48.54,18.93-94.94,28.16-141.23c-28.82-8.46-31.31-7.26-40.72,18.74
			c-13.03,36.01-25.67,72.18-39.56,107.85c-2.33,5.99-10.08,14.02-15.41,14.08C776.41,850.64,698.2,850.35,616.33,850.35z"/>
		<path d="M1026.82,289.47c-0.92,87.44-70.12,156.27-156.6,155.77c-87.48-0.5-155.94-70.83-155.17-159.4
			c0.74-84.53,72.09-154.7,156.62-154.01C957.78,132.52,1027.73,203.59,1026.82,289.47z"/>
		<path d="M315.9,176.4c-7.24,42.01-13.88,80.53-20.84,120.96c-27.79-6.56-50.39-10.38-71.79-17.71
			c-8.48-2.91-17.37-12.43-20.72-21.02c-10.04-25.79-6.31-51.83,11.08-73.08c6.82-8.34,20.87-14.44,31.89-14.88
			C266.59,169.84,287.86,173.8,315.9,176.4z"/>
		<path d="M139.84,184.38c-2.09,15.02-3.7,26.55-5.67,40.65C89.42,219.61,45.88,214.33,0,208.76c2.16-14.57,4.05-27.3,6.09-41.03
			C51.08,173.33,93.96,178.67,139.84,184.38z"/>
		<path d="M147.62,133.35c-36.71-26.51-71.18-51.41-107.07-77.33c8.72-11.7,16.4-22.03,24.81-33.31
			c36.01,26.07,70.41,50.97,106.25,76.91C163.41,111.15,156.3,121.14,147.62,133.35z"/>
		<path d="M129.76,276.63c5.44,13.63,9.77,24.45,15.29,38.28c-40.19,16.21-79.36,32.02-121.18,48.89
			c-5.44-12.62-10.43-24.22-16.39-38.06C48.83,309.13,88.09,293.37,129.76,276.63z"/>
	</g>
</g>
<g id="Layer_1">
</g>
</svg>
