<?xml version="1.0" encoding="utf-8"?>
<!-- Generator: Adobe Illustrator 27.0.0, SVG Export Plug-In . SVG Version: 6.00 Build 0)  -->
<svg version="1.1" id="Layer_1" xmlns="http://www.w3.org/2000/svg" xmlns:xlink="http://www.w3.org/1999/xlink" x="0px" y="0px"
	 viewBox="0 0 234.25 272.33" style="enable-background:new 0 0 234.25 272.33;" xml:space="preserve">
<g>
	<path d="M63.04,83.95c0.06-0.73-0.25-2.36,0.34-3.53c3.89-7.77-0.54-12.56-6.03-16.78c-1.73-1.32-4.18-2.37-6.31-2.39
		c-13.2-0.11-20.73-8.89-18.42-21.88c3.21-18.05,22.6-36.73,40.69-39.19c11.05-1.51,20.36,6.84,20.26,18.17
		c-0.07,8.19,8.29,15.24,15.99,13.49c19-4.33,32.65,8.92,27.11,27.54c-7.26,24.45-23.73,40.34-48.91,45.94
		C74.44,108.29,62.99,98.22,63.04,83.95z"/>
	<path d="M40.42,73.04c2.68,0.32,4.49,0.72,6.29,0.71c3.97,0,4.69,2,4.13,5.52c-6.6,41.62-16.2,82.51-29.76,122.43
		c-1.95,5.75-3.89,11.5-6.16,18.2c56.19,13.36,111.9,26.61,167.48,39.83c13.47-25.5,38.86-131.68,39.51-165.35
		c-25.42-6.07-51.01-12.19-77.35-18.48c1.4-3.73,2.58-6.84,3.9-10.37c13.02,3.05,25.66,5.99,38.29,8.96
		c14.04,3.31,28.06,6.7,42.12,9.94c3.78,0.87,5.85,2,5.3,6.83c-5.97,52.26-17.01,103.37-33.92,153.19
		c-2.74,8.08-5.85,16.03-8.5,24.14c-1.13,3.45-2.79,4.27-6.28,3.42c-34.51-8.34-69.05-16.56-103.59-24.78
		C54.84,240.81,27.8,234.41,0,227.81C18.97,177.66,32.63,126.42,40.42,73.04z"/>
	<path d="M124.92,101.23c2.8-3.17,5.6-6.34,9.05-10.24c4.36,4.69,8.29,9.07,12.39,13.27c3.33,3.42,1.04,6.15-1.22,8.36
		c-2.34,2.29-5.05,5.15-8.83,1.65c-4.3-3.97-8.76-7.76-13.15-11.63C123.75,102.17,124.34,101.7,124.92,101.23z"/>
	<g>
		<path d="M70.38,121.87c0.72,0.16,1.35,0.51,1.89,1.04s0.95,1.26,1.22,2.18c0.27,0.93,0.38,2.07,0.36,3.43
			c-0.03,1.36-0.25,2.93-0.65,4.72l-9.06,40.13c-0.88,3.9-2,7.3-3.36,10.2c-1.36,2.9-2.9,5.25-4.61,7.04
			c-1.71,1.79-3.57,3.03-5.57,3.72c-2,0.69-4.1,0.79-6.29,0.3l-1.14-0.26c-1.58-0.36-2.65-1.29-3.2-2.8
			c-0.56-1.51-0.54-3.58,0.06-6.21c0.57-2.53,1.43-4.37,2.59-5.53c1.16-1.16,2.53-1.56,4.11-1.2c0.84,0.19,1.62,0.2,2.33,0.03
			c0.71-0.17,1.38-0.58,1.99-1.24c0.61-0.65,1.17-1.58,1.69-2.77c0.51-1.19,0.98-2.7,1.39-4.53l8.84-39.19
			c0.4-1.79,0.88-3.31,1.44-4.55c0.56-1.24,1.15-2.22,1.79-2.94c0.64-0.72,1.31-1.21,2.02-1.45
			C68.92,121.74,69.64,121.7,70.38,121.87z M43.74,186.37c-0.13,0.6-0.11,1.09,0.06,1.48c0.18,0.39,0.44,0.63,0.8,0.71
			c0.29,0.07,0.6-0.04,0.92-0.32c0.32-0.28,0.54-0.72,0.68-1.31c0.15-0.67,0.15-1.22-0.01-1.66c-0.16-0.44-0.38-0.69-0.68-0.76
			c-0.36-0.08-0.71,0.04-1.05,0.37S43.89,185.7,43.74,186.37z M48.93,186.16c-0.13,0.6-0.12,1.13,0.03,1.61
			c0.16,0.48,0.42,0.76,0.77,0.84c0.4,0.09,0.74-0.05,1.03-0.43c0.28-0.38,0.49-0.87,0.63-1.46c0.31-1.37,0.07-2.14-0.71-2.32
			c-0.36-0.08-0.7,0.03-1.04,0.32C49.32,185.01,49.08,185.49,48.93,186.16z M53.74,182.04c-0.13,0.6-0.12,1.14,0.05,1.62
			c0.17,0.48,0.38,0.75,0.63,0.81c0.4,0.09,0.76-0.05,1.09-0.42c0.33-0.37,0.56-0.85,0.69-1.45c0.15-0.67,0.15-1.19-0.01-1.55
			c-0.16-0.37-0.44-0.6-0.84-0.69c-0.25-0.06-0.55,0.04-0.88,0.3C54.14,180.91,53.89,181.38,53.74,182.04z M56.82,174.43
			c-0.13,0.6-0.12,1.12,0.05,1.56c0.17,0.44,0.43,0.71,0.78,0.79c0.4,0.09,0.75-0.03,1.05-0.37c0.3-0.34,0.51-0.81,0.65-1.4
			c0.14-0.63,0.15-1.17,0.04-1.62c-0.12-0.45-0.38-0.72-0.78-0.81c-0.36-0.08-0.71,0.05-1.05,0.4
			C57.21,173.31,56.97,173.8,56.82,174.43z M59.07,165.64c-0.13,0.6-0.12,1.12,0.05,1.56c0.17,0.44,0.43,0.71,0.79,0.79
			c0.4,0.09,0.74-0.04,1.01-0.38c0.28-0.34,0.48-0.81,0.62-1.41c0.14-0.63,0.16-1.17,0.07-1.62c-0.1-0.45-0.35-0.72-0.75-0.81
			c-0.36-0.08-0.71,0.05-1.05,0.4C59.46,164.52,59.21,165.01,59.07,165.64z M60.99,157.16c-0.13,0.6-0.11,1.09,0.06,1.48
			c0.18,0.39,0.44,0.63,0.8,0.71c0.4,0.09,0.73-0.01,1-0.3c0.26-0.29,0.46-0.73,0.6-1.33c0.15-0.67,0.17-1.21,0.07-1.64
			c-0.1-0.43-0.35-0.69-0.75-0.78c-0.36-0.08-0.71,0.04-1.05,0.37S61.14,156.5,60.99,157.16z M62.98,148.32
			c-0.14,0.6-0.12,1.12,0.05,1.56c0.17,0.44,0.43,0.7,0.79,0.79c0.4,0.09,0.74-0.04,1.01-0.38c0.28-0.34,0.48-0.81,0.62-1.41
			c0.15-0.67,0.17-1.21,0.07-1.64c-0.1-0.43-0.35-0.69-0.75-0.78c-0.36-0.08-0.71,0.04-1.05,0.37S63.13,147.65,62.98,148.32z
			 M64.93,139.68c-0.11,0.49-0.08,0.97,0.08,1.43c0.16,0.46,0.42,0.73,0.78,0.81c0.4,0.09,0.74-0.04,1.02-0.41
			c0.28-0.36,0.48-0.79,0.59-1.28c0.15-0.67,0.17-1.21,0.07-1.64c-0.1-0.43-0.35-0.69-0.75-0.78c-0.36-0.08-0.71,0.04-1.05,0.37
			C65.33,138.51,65.08,139.01,64.93,139.68z M66.83,131.25c-0.11,0.49-0.08,0.97,0.08,1.43c0.16,0.46,0.42,0.73,0.78,0.81
			c0.4,0.09,0.74-0.05,1.02-0.41s0.48-0.79,0.59-1.28c0.15-0.67,0.17-1.21,0.07-1.64c-0.1-0.43-0.35-0.69-0.75-0.78
			c-0.36-0.08-0.71,0.04-1.05,0.37C67.23,130.09,66.98,130.58,66.83,131.25z"/>
		<path d="M87.62,206.35c-6.59-1.49-11.31-6.37-14.15-14.65c-2.8-8.27-2.9-18.2-0.28-29.79c2.61-11.55,6.97-20.46,13.1-26.71
			c6.13-6.26,12.46-8.65,19.01-7.17c6.61,1.49,11.32,6.41,14.13,14.76c2.85,8.25,2.98,18.13,0.38,29.64
			c-2.61,11.55-6.98,20.47-13.11,26.76c-3.05,3.11-6.15,5.27-9.31,6.48C94.23,206.88,90.97,207.11,87.62,206.35z M77.45,169.24
			c-0.36-0.08-0.71,0.07-1.07,0.45c-0.35,0.38-0.58,0.82-0.69,1.31c-0.13,0.6-0.12,1.12,0.04,1.56c0.17,0.44,0.43,0.71,0.79,0.79
			c0.4,0.09,0.75-0.03,1.05-0.37c0.3-0.34,0.51-0.81,0.65-1.4c0.11-0.49,0.11-0.98,0-1.47C78.1,169.62,77.85,169.33,77.45,169.24z
			 M77.53,176.95c-0.29-0.07-0.61,0.08-0.95,0.45c-0.34,0.37-0.57,0.85-0.71,1.44c-0.15,0.67-0.14,1.21,0.02,1.61
			c0.16,0.41,0.39,0.64,0.69,0.71c0.4,0.09,0.75-0.01,1.07-0.31c0.31-0.3,0.54-0.78,0.69-1.45c0.13-0.6,0.13-1.13,0-1.61
			C78.2,177.32,77.93,177.04,77.53,176.95z M79.47,163.22c0.11-0.49,0.09-0.98-0.05-1.48c-0.14-0.49-0.39-0.78-0.75-0.86
			c-0.4-0.09-0.74,0.06-1.03,0.46c-0.29,0.4-0.49,0.84-0.6,1.33c-0.13,0.6-0.15,1.11-0.05,1.54c0.1,0.43,0.35,0.69,0.75,0.78
			c0.36,0.08,0.7-0.04,1.03-0.38C79.1,164.28,79.33,163.81,79.47,163.22z M78.95,184.19c-0.36-0.08-0.69,0.08-0.99,0.47
			c-0.3,0.39-0.5,0.8-0.59,1.22c-0.15,0.67-0.17,1.22-0.06,1.65c0.11,0.43,0.35,0.69,0.71,0.77c0.4,0.09,0.76-0.03,1.08-0.37
			c0.32-0.33,0.55-0.83,0.7-1.5c0.09-0.42,0.08-0.88-0.06-1.37C79.62,184.57,79.35,184.28,78.95,184.19z M81.82,155.28
			c0.11-0.49,0.1-0.96-0.04-1.42c-0.14-0.46-0.39-0.72-0.75-0.8c-0.4-0.09-0.76,0.04-1.08,0.39c-0.32,0.35-0.54,0.77-0.65,1.27
			c-0.14,0.63-0.14,1.18,0,1.63c0.14,0.46,0.41,0.73,0.81,0.82c0.36,0.08,0.7-0.05,1.02-0.41C81.45,156.4,81.68,155.91,81.82,155.28
			z M81.72,190.02c-0.36-0.08-0.71,0.05-1.05,0.4c-0.35,0.35-0.57,0.77-0.68,1.26c-0.15,0.67-0.14,1.22,0.02,1.67
			c0.17,0.44,0.43,0.71,0.78,0.79c0.36,0.08,0.69-0.05,0.98-0.39c0.3-0.34,0.52-0.84,0.67-1.51c0.11-0.49,0.11-0.96-0.01-1.42
			C82.32,190.36,82.08,190.1,81.72,190.02z M85.29,148.31c0.13-0.6,0.12-1.11-0.05-1.53c-0.17-0.43-0.43-0.68-0.79-0.76
			c-0.36-0.08-0.68,0.04-0.98,0.36c-0.29,0.32-0.51,0.78-0.64,1.38c-0.15,0.67-0.16,1.2-0.03,1.6c0.13,0.4,0.38,0.64,0.73,0.72
			c0.36,0.08,0.7-0.03,1.04-0.32C84.9,149.46,85.14,148.98,85.29,148.31z M91.48,189.29c3.71,0.84,7.16-0.49,10.36-3.97
			c3.24-3.55,5.62-8.7,7.14-15.44c1.51-6.71,1.57-12.36,0.17-16.95c-1.35-4.62-3.88-7.35-7.61-8.19c-3.73-0.84-7.19,0.54-10.39,4.13
			c-3.22,3.67-5.57,8.8-7.06,15.4c-1.5,6.64-1.58,12.3-0.25,16.99C85.22,185.77,87.77,188.45,91.48,189.29z M85.63,193.89
			c-0.36-0.08-0.7,0.06-1.03,0.43c-0.33,0.37-0.56,0.85-0.69,1.45c-0.14,0.6-0.13,1.1,0.03,1.5c0.15,0.4,0.41,0.65,0.77,0.73
			c0.38,0.09,0.72-0.02,1.02-0.32c0.3-0.3,0.52-0.75,0.65-1.35c0.13-0.6,0.14-1.13,0.01-1.6C86.26,194.25,86,193.97,85.63,193.89z
			 M89.62,142.65c0.13-0.6,0.12-1.12-0.05-1.56s-0.43-0.71-0.78-0.79c-0.38-0.09-0.71,0.04-0.98,0.39
			c-0.28,0.34-0.48,0.81-0.62,1.41s-0.15,1.11-0.05,1.54c0.1,0.43,0.34,0.69,0.72,0.77c0.36,0.08,0.71-0.04,1.05-0.37
			C89.25,143.71,89.49,143.25,89.62,142.65z M88.42,197.67c-0.11,0.49-0.1,0.98,0.05,1.48c0.14,0.49,0.36,0.77,0.66,0.84
			c0.4,0.09,0.76-0.06,1.1-0.44c0.33-0.39,0.55-0.83,0.66-1.32c0.13-0.6,0.13-1.11-0.02-1.55c-0.14-0.44-0.42-0.7-0.82-0.79
			c-0.29-0.07-0.61,0.07-0.94,0.4C88.79,196.61,88.56,197.08,88.42,197.67z M94.34,138.35c0.13-0.6,0.14-1.11,0.02-1.55
			c-0.12-0.43-0.36-0.69-0.72-0.77c-0.38-0.09-0.73,0.04-1.06,0.37c-0.33,0.33-0.56,0.8-0.7,1.39c-0.13,0.6-0.12,1.12,0.03,1.56
			c0.15,0.44,0.42,0.7,0.8,0.79c0.36,0.08,0.68-0.05,0.98-0.39C93.99,139.41,94.21,138.94,94.34,138.35z M93.41,197.91
			c-0.11,0.49-0.08,0.97,0.09,1.43c0.17,0.46,0.41,0.73,0.7,0.79c0.36,0.08,0.7-0.05,1.02-0.41c0.32-0.35,0.54-0.77,0.65-1.26
			c0.15-0.67,0.15-1.22,0.01-1.66c-0.14-0.44-0.4-0.7-0.75-0.78c-0.29-0.07-0.62,0.06-0.97,0.39
			C93.81,196.75,93.56,197.25,93.41,197.91z M99.69,136.29c0.11-0.49,0.09-0.98-0.05-1.48c-0.14-0.49-0.39-0.78-0.75-0.86
			c-0.4-0.09-0.74,0.06-1.03,0.46c-0.29,0.4-0.49,0.84-0.6,1.33c-0.15,0.67-0.18,1.21-0.07,1.64c0.1,0.43,0.35,0.69,0.75,0.78
			c0.36,0.08,0.7-0.04,1.03-0.38C99.3,137.45,99.54,136.95,99.69,136.29z M98.67,195.67c-0.13,0.6-0.12,1.13,0.03,1.61
			c0.16,0.48,0.41,0.76,0.77,0.84s0.69-0.07,1-0.44c0.3-0.37,0.53-0.86,0.66-1.46c0.11-0.49,0.11-0.96-0.01-1.41
			c-0.12-0.45-0.36-0.72-0.72-0.8c-0.36-0.08-0.71,0.05-1.05,0.4S98.78,195.18,98.67,195.67z M103,138.53
			c0.36,0.08,0.71-0.07,1.06-0.45c0.35-0.38,0.58-0.82,0.69-1.31c0.15-0.67,0.14-1.2-0.03-1.61c-0.17-0.41-0.44-0.65-0.8-0.73
			c-0.36-0.08-0.68,0.03-0.97,0.33c-0.29,0.3-0.51,0.79-0.66,1.46c-0.11,0.49-0.11,0.98,0,1.47
			C102.41,138.16,102.64,138.45,103,138.53z M103.48,191.55c-0.11,0.49-0.1,0.98,0.03,1.47c0.13,0.49,0.38,0.78,0.74,0.86
			s0.7-0.07,1.03-0.46c0.33-0.39,0.55-0.83,0.66-1.32c0.13-0.6,0.13-1.11-0.01-1.55c-0.15-0.44-0.4-0.7-0.75-0.78
			c-0.36-0.08-0.7,0.05-1.02,0.38C103.84,190.49,103.61,190.96,103.48,191.55z M107.51,140.32c0.36,0.08,0.7-0.06,1.03-0.43
			c0.33-0.37,0.56-0.85,0.69-1.45c0.13-0.6,0.13-1.11-0.01-1.55c-0.14-0.44-0.4-0.7-0.75-0.78c-0.36-0.08-0.7,0.05-1.01,0.38
			c-0.32,0.33-0.54,0.8-0.68,1.4c-0.13,0.6-0.13,1.13,0,1.61C106.9,139.96,107.15,140.24,107.51,140.32z M107.82,185.83
			c-0.13,0.6-0.13,1.11,0.01,1.55c0.14,0.44,0.4,0.7,0.75,0.78c0.36,0.08,0.7-0.05,1.01-0.38c0.32-0.33,0.55-0.8,0.68-1.4
			c0.14-0.63,0.14-1.18,0-1.63c-0.14-0.46-0.39-0.73-0.75-0.81c-0.36-0.08-0.7,0.06-1.02,0.41
			C108.2,184.71,107.97,185.2,107.82,185.83z M111.46,144.14c0.29,0.07,0.62-0.06,0.97-0.39c0.35-0.33,0.59-0.79,0.73-1.39
			c0.13-0.6,0.11-1.12-0.06-1.56c-0.18-0.45-0.41-0.7-0.71-0.77c-0.4-0.09-0.76,0.03-1.08,0.37s-0.55,0.8-0.68,1.4
			c-0.13,0.6-0.13,1.11,0.01,1.55C110.78,143.79,111.06,144.05,111.46,144.14z M111.21,178.91c-0.11,0.49-0.08,0.97,0.09,1.43
			c0.17,0.46,0.41,0.73,0.7,0.79c0.4,0.09,0.75-0.04,1.05-0.4c0.3-0.36,0.51-0.78,0.62-1.27c0.15-0.67,0.17-1.22,0.04-1.65
			c-0.12-0.43-0.38-0.7-0.79-0.79c-0.29-0.07-0.62,0.06-0.97,0.39C111.61,177.74,111.36,178.24,111.21,178.91z M114.2,150.08
			c0.29,0.07,0.62-0.08,0.98-0.44c0.36-0.36,0.59-0.79,0.71-1.28c0.15-0.67,0.13-1.21-0.05-1.62c-0.18-0.41-0.42-0.65-0.72-0.72
			c-0.82-0.19-1.39,0.41-1.69,1.78c-0.11,0.49-0.11,0.97,0.01,1.44C113.54,149.71,113.8,149.99,114.2,150.08z M113.71,170.94
			c-0.11,0.49-0.1,0.98,0.03,1.47c0.13,0.49,0.38,0.78,0.74,0.86c0.36,0.08,0.7-0.07,1.03-0.46c0.33-0.39,0.55-0.82,0.66-1.32
			c0.13-0.6,0.13-1.11-0.02-1.55c-0.14-0.44-0.4-0.7-0.75-0.78c-0.36-0.08-0.7,0.05-1.01,0.38
			C114.07,169.88,113.84,170.35,113.71,170.94z M115.65,156.88c0.36,0.08,0.71-0.04,1.05-0.37c0.34-0.33,0.58-0.79,0.71-1.39
			c0.14-0.63,0.13-1.16-0.04-1.59c-0.17-0.43-0.43-0.68-0.79-0.76c-0.36-0.08-0.68,0.04-0.98,0.36c-0.29,0.32-0.51,0.8-0.65,1.43
			c-0.13,0.6-0.14,1.11-0.02,1.55C115.05,156.54,115.29,156.8,115.65,156.88z M115.78,164.99c0.36,0.08,0.7-0.06,1.03-0.43
			c0.33-0.37,0.56-0.85,0.69-1.45c0.13-0.6,0.12-1.1-0.03-1.5c-0.15-0.4-0.41-0.65-0.76-0.73c-0.36-0.08-0.69,0.03-1,0.33
			c-0.31,0.3-0.53,0.75-0.67,1.34c-0.13,0.6-0.13,1.13,0,1.61C115.18,164.63,115.42,164.91,115.78,164.99z"/>
		<path d="M151.59,176.78c0.94,0.92,1.73,2.05,2.35,3.41c0.62,1.36,1.07,2.86,1.35,4.51c0.28,1.65,0.39,3.39,0.32,5.22
			c-0.07,1.83-0.32,3.68-0.74,5.54c-0.8,3.55-1.86,6.66-3.17,9.33c-1.31,2.67-2.87,4.85-4.68,6.53c-1.81,1.68-3.85,2.82-6.12,3.43
			c-2.27,0.61-4.76,0.61-7.45,0.01l-10.96-2.47c-0.91-0.2-1.64-0.5-2.21-0.89c-0.57-0.39-0.98-0.9-1.24-1.55
			c-0.26-0.65-0.38-1.44-0.34-2.37c0.03-0.93,0.2-2.07,0.5-3.4l13.68-60.62c0.52-2.32,1.28-4,2.28-5.05s2.41-1.37,4.22-0.96
			l9.25,2.09c2.61,0.59,4.74,1.57,6.38,2.93c1.64,1.37,2.86,3.03,3.65,5c0.79,1.97,1.2,4.22,1.21,6.75s-0.31,5.27-0.98,8.22
			c-0.44,1.93-0.95,3.67-1.54,5.21c-0.59,1.55-1.21,2.91-1.85,4.09c-0.64,1.18-1.31,2.19-1.99,3.01
			C152.84,175.58,152.2,176.26,151.59,176.78z M123.21,204.14c-0.13,0.6-0.12,1.1,0.06,1.51c0.17,0.41,0.44,0.65,0.8,0.73
			c0.36,0.08,0.67-0.03,0.96-0.34c0.28-0.31,0.49-0.76,0.62-1.35c0.14-0.63,0.16-1.16,0.04-1.6c-0.11-0.43-0.35-0.69-0.71-0.77
			s-0.71,0.04-1.05,0.37C123.59,203.03,123.35,203.51,123.21,204.14z M125.12,195.66c-0.11,0.49-0.08,0.97,0.08,1.43
			c0.16,0.46,0.42,0.73,0.78,0.81s0.68-0.06,0.97-0.42c0.29-0.36,0.49-0.78,0.6-1.28c0.15-0.67,0.17-1.22,0.06-1.65
			c-0.11-0.43-0.35-0.69-0.71-0.77c-0.36-0.08-0.71,0.04-1.05,0.37C125.52,194.5,125.27,195,125.12,195.66z M127.05,187.13
			c-0.11,0.49-0.08,0.97,0.08,1.43c0.16,0.46,0.42,0.73,0.78,0.81c0.36,0.08,0.68-0.06,0.97-0.42c0.29-0.36,0.49-0.78,0.6-1.28
			c0.15-0.67,0.17-1.22,0.06-1.65c-0.11-0.43-0.35-0.69-0.71-0.77s-0.71,0.04-1.05,0.37C127.44,185.96,127.2,186.46,127.05,187.13z
			 M128.05,205.51c-0.13,0.6-0.11,1.09,0.06,1.48c0.18,0.39,0.44,0.63,0.8,0.71c0.4,0.09,0.73-0.01,1-0.3
			c0.26-0.29,0.46-0.73,0.6-1.33c0.15-0.67,0.17-1.21,0.07-1.64c-0.1-0.43-0.35-0.69-0.75-0.78c-0.36-0.08-0.71,0.04-1.05,0.37
			C128.44,204.34,128.2,204.84,128.05,205.51z M128.97,178.6c-0.11,0.49-0.09,0.99,0.06,1.48c0.15,0.5,0.41,0.78,0.77,0.87
			s0.68-0.08,0.99-0.47c0.3-0.39,0.5-0.84,0.62-1.33c0.13-0.6,0.14-1.11,0.03-1.54c-0.11-0.43-0.35-0.69-0.71-0.77
			c-0.36-0.08-0.71,0.04-1.05,0.37C129.35,177.54,129.11,178,128.97,178.6z M130.83,170.38c-0.14,0.6-0.12,1.14,0.03,1.61
			c0.16,0.48,0.42,0.76,0.77,0.84c0.36,0.08,0.68-0.07,0.98-0.44c0.29-0.38,0.51-0.86,0.65-1.46c0.13-0.6,0.14-1.08,0.01-1.46
			c-0.13-0.38-0.37-0.61-0.72-0.69s-0.7,0.02-1.03,0.29C131.19,169.35,130.96,169.78,130.83,170.38z M131.12,198.79l6.29,1.42
			c1.64,0.37,3.08-0.06,4.31-1.3c1.23-1.24,2.17-3.27,2.81-6.12c0.63-2.77,0.54-5.03-0.25-6.78c-0.79-1.75-2.24-2.86-4.34-3.33
			l-4.93-1.11L131.12,198.79z M132.74,161.9c-0.13,0.6-0.12,1.13,0.03,1.61c0.16,0.48,0.42,0.76,0.77,0.84
			c0.36,0.08,0.68-0.07,0.98-0.44c0.29-0.38,0.51-0.86,0.65-1.46c0.13-0.6,0.14-1.09,0.02-1.49c-0.12-0.4-0.36-0.64-0.72-0.72
			c-0.36-0.08-0.7,0.03-1.04,0.32C133.11,160.86,132.88,161.3,132.74,161.9z M132.85,206.59c-0.13,0.6-0.12,1.09,0.03,1.47
			c0.16,0.39,0.41,0.62,0.77,0.7c0.38,0.08,0.71-0.01,1.01-0.3c0.29-0.28,0.51-0.72,0.65-1.32c0.15-0.67,0.16-1.22,0.03-1.65
			c-0.14-0.44-0.39-0.7-0.77-0.78c-0.36-0.08-0.7,0.05-1.02,0.38C133.23,205.43,133,205.93,132.85,206.59z M134.74,153.05
			c-0.13,0.6-0.12,1.13,0.03,1.61c0.16,0.48,0.42,0.76,0.77,0.84s0.68-0.07,0.98-0.44c0.29-0.38,0.51-0.86,0.65-1.46
			c0.13-0.6,0.14-1.09,0.02-1.49c-0.12-0.4-0.36-0.63-0.72-0.72c-0.36-0.08-0.7,0.03-1.04,0.32
			C135.11,152.01,134.87,152.46,134.74,153.05z M134.81,174.05c-0.13,0.6-0.11,1.09,0.06,1.48c0.18,0.39,0.45,0.63,0.8,0.71
			c0.4,0.09,0.74-0.01,1.03-0.29c0.29-0.29,0.5-0.73,0.63-1.33c0.15-0.67,0.16-1.22,0.04-1.65c-0.12-0.43-0.38-0.7-0.78-0.79
			c-0.36-0.08-0.71,0.04-1.05,0.37C135.21,172.88,134.96,173.38,134.81,174.05z M136.66,144.52c-0.13,0.6-0.12,1.13,0.03,1.61
			c0.16,0.48,0.42,0.76,0.77,0.84c0.36,0.08,0.68-0.07,0.98-0.44c0.29-0.38,0.51-0.86,0.65-1.46c0.13-0.6,0.14-1.11,0.03-1.54
			c-0.11-0.43-0.35-0.69-0.71-0.77s-0.71,0.04-1.05,0.37C137.04,143.46,136.8,143.92,136.66,144.52z M137.56,207.05
			c-0.13,0.6-0.12,1.1,0.04,1.5c0.16,0.41,0.39,0.64,0.69,0.71c0.4,0.09,0.75-0.01,1.07-0.31c0.31-0.3,0.53-0.75,0.67-1.34
			c0.14-0.63,0.14-1.18,0-1.63c-0.14-0.46-0.41-0.73-0.81-0.82c-0.29-0.07-0.61,0.07-0.94,0.42
			C137.94,205.93,137.7,206.42,137.56,207.05z M138.12,167.77l3.63,0.82c0.78,0.18,1.53,0.16,2.27-0.04
			c0.73-0.2,1.41-0.59,2.04-1.17c0.63-0.58,1.19-1.31,1.68-2.2c0.49-0.89,0.87-1.94,1.15-3.17c1.04-4.6-0.06-7.27-3.31-8l-4.14-0.93
			L138.12,167.77z M139.68,175.15c-0.13,0.6-0.14,1.09-0.02,1.46s0.37,0.61,0.73,0.69c0.4,0.09,0.75-0.01,1.06-0.29
			c0.31-0.28,0.53-0.72,0.66-1.32c0.15-0.67,0.15-1.22,0.01-1.66c-0.15-0.44-0.42-0.7-0.82-0.79c-0.36-0.08-0.68,0.05-0.97,0.39
			C140.05,173.97,139.83,174.48,139.68,175.15z M141.61,145.41c-0.13,0.6-0.12,1.13,0.03,1.61s0.42,0.76,0.77,0.84
			c0.4,0.09,0.74-0.05,1.03-0.43s0.5-0.87,0.63-1.46c0.29-1.3,0.05-2.04-0.73-2.21c-0.36-0.08-0.7,0.03-1.03,0.32
			C141.98,144.37,141.74,144.82,141.61,145.41z M142.5,205.01c-0.1,0.42-0.07,0.88,0.09,1.38c0.15,0.5,0.41,0.78,0.77,0.87
			c0.36,0.08,0.69-0.07,1-0.47c0.31-0.39,0.51-0.8,0.61-1.22c0.15-0.67,0.17-1.22,0.04-1.65c-0.12-0.43-0.36-0.69-0.72-0.77
			c-0.36-0.08-0.71,0.04-1.05,0.37C142.89,203.84,142.65,204.34,142.5,205.01z M145.11,173.88c-0.14,0.6-0.13,1.13,0.02,1.61
			c0.15,0.48,0.37,0.75,0.66,0.81c0.4,0.09,0.76-0.05,1.09-0.42c0.33-0.37,0.56-0.85,0.69-1.45c0.13-0.6,0.12-1.1-0.03-1.5
			c-0.15-0.4-0.43-0.65-0.83-0.74c-0.3-0.07-0.6,0.05-0.92,0.35C145.47,172.84,145.24,173.28,145.11,173.88z M146.53,180.84
			c-0.13,0.6-0.12,1.12,0.03,1.56c0.16,0.44,0.38,0.69,0.67,0.76c0.4,0.09,0.76-0.03,1.08-0.37c0.32-0.33,0.55-0.8,0.68-1.4
			c0.14-0.63,0.14-1.18,0-1.63c-0.14-0.46-0.41-0.73-0.81-0.82c-0.3-0.07-0.61,0.08-0.94,0.42
			C146.91,179.72,146.67,180.21,146.53,180.84z M146.6,146.54c-0.13,0.6-0.13,1.13,0,1.61s0.38,0.75,0.74,0.83
			c0.38,0.09,0.73-0.06,1.04-0.43c0.32-0.37,0.54-0.85,0.68-1.45c0.13-0.6,0.13-1.1-0.01-1.5c-0.14-0.4-0.4-0.64-0.78-0.73
			c-0.36-0.08-0.69,0.03-1,0.33C146.96,145.5,146.73,145.94,146.6,146.54z M146.88,200.46c-0.11,0.49-0.11,0.96,0.01,1.41
			c0.12,0.45,0.38,0.72,0.78,0.81c0.36,0.08,0.7-0.05,1.02-0.41c0.32-0.35,0.54-0.77,0.65-1.26c0.15-0.67,0.15-1.22,0.01-1.66
			c-0.14-0.44-0.39-0.7-0.75-0.78c-0.3-0.07-0.62,0.06-0.97,0.39C147.28,199.3,147.03,199.79,146.88,200.46z M149.06,185.95
			c-0.13,0.6-0.13,1.11,0.01,1.55c0.14,0.44,0.4,0.7,0.75,0.78c0.38,0.09,0.72-0.04,1.03-0.38c0.31-0.34,0.53-0.8,0.67-1.4
			c0.14-0.63,0.15-1.18,0.02-1.63s-0.38-0.72-0.76-0.81c-0.36-0.08-0.7,0.06-1.02,0.41C149.43,184.83,149.2,185.32,149.06,185.95z
			 M149.45,193.18c-0.13,0.6-0.13,1.13,0.02,1.61c0.15,0.48,0.37,0.75,0.66,0.81c0.4,0.09,0.76-0.05,1.09-0.42
			c0.33-0.37,0.56-0.85,0.69-1.45c0.11-0.49,0.1-0.97-0.04-1.42c-0.14-0.46-0.41-0.73-0.81-0.82c-0.3-0.07-0.61,0.08-0.94,0.42
			S149.56,192.69,149.45,193.18z M149.8,169.13c-0.13,0.6-0.13,1.11,0.01,1.55c0.14,0.44,0.4,0.7,0.75,0.78
			c0.38,0.09,0.72-0.04,1.03-0.38c0.31-0.34,0.53-0.8,0.67-1.4c0.13-0.6,0.13-1.11,0-1.55c-0.13-0.44-0.39-0.7-0.77-0.78
			c-0.36-0.08-0.7,0.05-1.02,0.38C150.16,168.07,149.93,168.53,149.8,169.13z M151.12,149.17c-0.13,0.6-0.14,1.1-0.03,1.52
			c0.12,0.41,0.35,0.66,0.71,0.74c0.4,0.09,0.76-0.02,1.07-0.34c0.31-0.32,0.54-0.77,0.67-1.37c0.15-0.67,0.15-1.2,0-1.61
			c-0.15-0.4-0.43-0.65-0.83-0.74c-0.36-0.08-0.68,0.03-0.96,0.34C151.48,148.01,151.27,148.5,151.12,149.17z M153.23,162.32
			c-0.13,0.6-0.13,1.13,0.02,1.61c0.15,0.48,0.37,0.75,0.66,0.81c0.4,0.09,0.76-0.05,1.09-0.42c0.33-0.37,0.56-0.85,0.69-1.45
			c0.13-0.6,0.13-1.11-0.01-1.55c-0.15-0.44-0.42-0.7-0.82-0.79c-0.3-0.07-0.61,0.07-0.94,0.4
			C153.6,161.26,153.36,161.72,153.23,162.32z M153.91,154.17c-0.13,0.6-0.12,1.12,0.05,1.56s0.43,0.71,0.78,0.79
			c0.36,0.08,0.69-0.05,0.98-0.39c0.3-0.34,0.51-0.81,0.65-1.4c0.14-0.63,0.15-1.16,0.02-1.57c-0.13-0.42-0.37-0.66-0.73-0.75
			s-0.68-0.02-0.97,0.2C154.4,152.81,154.14,153.34,153.91,154.17z"/>
		<path d="M178.04,202.12c0.6-2.67,0.53-4.71-0.21-6.14c-0.33-0.78-0.9-1.64-1.69-2.6s-1.78-2.03-2.97-3.22
			c-3.35-3.19-5.62-6.79-6.79-10.8c-1.18-4.01-1.15-8.74,0.08-14.18c1.58-6.99,4.25-12.12,8.02-15.4c3.83-3.45,7.98-4.67,12.45-3.67
			c1.77,0.4,3.3,1.03,4.6,1.9c1.3,0.87,2.34,1.9,3.13,3.11s1.3,2.55,1.55,4.03c0.24,1.48,0.19,3-0.17,4.58
			c-0.59,2.6-1.43,4.48-2.54,5.65c-1.11,1.17-2.38,1.59-3.81,1.27c-0.84-0.19-1.69-0.94-2.55-2.24c-0.41-0.72-0.91-1.29-1.5-1.72
			c-0.59-0.43-1.27-0.73-2.05-0.91c-1.52-0.34-2.86-0.02-4.04,0.97c-1.17,0.99-2.01,2.59-2.51,4.8c-0.75,3.34,0.6,6.7,4.06,10.1
			c4.05,3.94,6.66,7.78,7.86,11.52c1.26,3.61,1.19,8.54-0.22,14.79c-1.66,7.37-4.54,12.92-8.64,16.65c-4,3.71-8.45,5.01-13.33,3.91
			c-3.83-0.87-6.72-2.81-8.67-5.83c-1.99-3.07-2.62-6.18-1.91-9.34c0.26-1.16,0.63-2.21,1.09-3.16c0.47-0.95,1.01-1.74,1.62-2.37
			c0.61-0.64,1.27-1.1,1.99-1.38c0.72-0.28,1.45-0.34,2.21-0.16c0.8,0.18,1.85,1.17,3.14,2.98c0.64,0.88,1.33,1.6,2.05,2.15
			c0.73,0.55,1.49,0.92,2.29,1.1c0.93,0.21,1.79,0.19,2.58-0.05c0.8-0.24,1.51-0.65,2.15-1.23c0.64-0.58,1.19-1.3,1.65-2.17
			C177.44,204.19,177.79,203.21,178.04,202.12z M159.88,210.2c-0.13,0.6-0.12,1.13,0.06,1.59c0.17,0.46,0.4,0.73,0.7,0.79
			c0.36,0.08,0.7-0.05,1.02-0.41c0.32-0.35,0.55-0.83,0.69-1.42c0.15-0.67,0.15-1.18-0.01-1.55c-0.16-0.37-0.42-0.59-0.78-0.67
			c-0.29-0.07-0.61,0.03-0.94,0.29C160.28,209.07,160.03,209.54,159.88,210.2z M163.41,214.71c-0.13,0.6-0.12,1.13,0.03,1.61
			c0.16,0.48,0.42,0.76,0.77,0.84c0.4,0.09,0.74-0.05,1.03-0.43c0.29-0.38,0.5-0.87,0.63-1.46c0.11-0.49,0.12-0.96,0.02-1.41
			c-0.1-0.45-0.35-0.72-0.75-0.81c-0.36-0.08-0.71,0.05-1.05,0.4C163.75,213.8,163.52,214.22,163.41,214.71z M168.07,216.7
			c-0.13,0.6-0.13,1.12,0.01,1.58c0.14,0.46,0.39,0.73,0.75,0.81c0.38,0.09,0.72-0.05,1.04-0.4c0.31-0.35,0.54-0.83,0.67-1.43
			c0.15-0.67,0.15-1.18,0-1.55c-0.15-0.37-0.41-0.59-0.79-0.68c-0.36-0.08-0.69,0.01-0.99,0.27S168.23,216.04,168.07,216.7z
			 M172.09,169.95c0.11-0.49,0.09-0.99-0.06-1.48c-0.15-0.5-0.41-0.78-0.77-0.87c-0.36-0.08-0.69,0.08-1,0.47s-0.52,0.83-0.63,1.32
			c-0.13,0.6-0.14,1.11-0.02,1.55c0.12,0.43,0.36,0.69,0.72,0.77c0.36,0.08,0.71-0.04,1.05-0.37
			C171.71,171.01,171.95,170.55,172.09,169.95z M171.2,176.67c-0.13,0.6-0.14,1.11-0.02,1.55c0.12,0.43,0.37,0.69,0.72,0.77
			c0.38,0.09,0.73-0.04,1.06-0.37s0.56-0.8,0.7-1.39c0.14-0.63,0.13-1.16-0.02-1.58c-0.16-0.42-0.43-0.68-0.81-0.76
			c-0.36-0.08-0.69,0.04-0.98,0.36C171.56,175.56,171.34,176.04,171.2,176.67z M173.76,161.64c0.13-0.6,0.12-1.12-0.05-1.56
			c-0.17-0.44-0.43-0.71-0.78-0.79c-0.3-0.07-0.61,0.07-0.94,0.4s-0.56,0.8-0.7,1.39s-0.12,1.12,0.03,1.56
			c0.16,0.44,0.38,0.69,0.68,0.76c0.36,0.08,0.71-0.04,1.05-0.37C173.39,162.7,173.63,162.24,173.76,161.64z M173.19,216.25
			c-0.09,0.42-0.07,0.88,0.07,1.37c0.14,0.49,0.36,0.77,0.66,0.84c0.4,0.09,0.77-0.06,1.1-0.44c0.33-0.39,0.54-0.79,0.64-1.21
			c0.15-0.67,0.15-1.22,0.01-1.66c-0.14-0.44-0.42-0.7-0.82-0.79c-0.29-0.07-0.61,0.07-0.94,0.4
			C173.58,215.09,173.34,215.59,173.19,216.25z M174.55,181.96c-0.13,0.6-0.12,1.12,0.06,1.56c0.18,0.45,0.41,0.7,0.71,0.77
			c0.36,0.08,0.7-0.04,1.02-0.38c0.32-0.33,0.54-0.8,0.68-1.4c0.14-0.63,0.14-1.16-0.01-1.58c-0.15-0.42-0.4-0.67-0.76-0.75
			c-0.29-0.07-0.62,0.05-0.96,0.36C174.94,180.86,174.7,181.33,174.55,181.96z M177.93,155.55c0.13-0.6,0.12-1.13-0.03-1.61
			c-0.16-0.48-0.42-0.76-0.77-0.84c-0.29-0.07-0.61,0.08-0.95,0.45c-0.34,0.37-0.57,0.85-0.71,1.45c-0.13,0.6-0.12,1.12,0.03,1.56
			c0.16,0.44,0.38,0.7,0.67,0.76c0.36,0.08,0.71-0.04,1.05-0.37C177.55,156.61,177.79,156.15,177.93,155.55z M178.07,212.7
			c-0.1,0.42-0.07,0.88,0.09,1.38c0.15,0.5,0.41,0.78,0.77,0.87s0.69-0.07,1-0.47c0.31-0.39,0.51-0.8,0.61-1.22
			c0.15-0.67,0.16-1.22,0.04-1.65c-0.12-0.43-0.36-0.69-0.72-0.77c-0.36-0.08-0.71,0.04-1.05,0.37
			C178.47,211.54,178.22,212.04,178.07,212.7z M178.29,186.13c-0.13,0.6-0.12,1.13,0.03,1.61c0.16,0.48,0.42,0.76,0.77,0.84
			c0.4,0.09,0.74-0.05,1.03-0.43c0.28-0.38,0.49-0.87,0.63-1.46c0.29-1.3,0.05-2.04-0.73-2.21c-0.36-0.08-0.7,0.03-1.04,0.32
			C178.66,185.09,178.43,185.53,178.29,186.13z M183.25,153.43c0.11-0.49,0.09-0.98-0.05-1.48c-0.14-0.49-0.36-0.77-0.66-0.84
			c-0.4-0.09-0.77,0.06-1.1,0.44c-0.33,0.39-0.55,0.83-0.66,1.32c-0.15,0.67-0.15,1.2,0,1.6c0.15,0.4,0.43,0.65,0.83,0.74
			c0.29,0.07,0.6-0.05,0.93-0.35C182.86,154.58,183.1,154.1,183.25,153.43z M181.64,191.15c-0.13,0.6-0.13,1.13,0.02,1.61
			c0.15,0.48,0.37,0.75,0.66,0.81c0.4,0.09,0.76-0.05,1.09-0.42c0.33-0.37,0.56-0.85,0.69-1.45c0.13-0.6,0.12-1.09-0.03-1.47
			c-0.16-0.39-0.43-0.62-0.83-0.71c-0.3-0.07-0.6,0.04-0.92,0.32C182,190.11,181.78,190.55,181.64,191.15z M181.76,206.06
			c-0.13,0.6-0.13,1.13,0,1.61c0.14,0.47,0.38,0.75,0.74,0.83c0.38,0.09,0.73-0.06,1.04-0.43c0.32-0.37,0.54-0.85,0.68-1.45
			c0.15-0.67,0.15-1.18,0-1.55c-0.15-0.37-0.42-0.59-0.79-0.68c-0.36-0.08-0.69,0.01-0.99,0.27S181.91,205.4,181.76,206.06z
			 M183.34,197.9c-0.13,0.6-0.13,1.11,0.01,1.55c0.14,0.44,0.4,0.7,0.75,0.78c0.38,0.09,0.72-0.04,1.02-0.38
			c0.3-0.34,0.51-0.81,0.65-1.4c0.14-0.63,0.15-1.16,0.02-1.57c-0.13-0.42-0.38-0.67-0.76-0.75c-0.36-0.08-0.69,0.04-1.01,0.35
			C183.71,196.79,183.48,197.26,183.34,197.9z M188.47,154.28c0.11-0.49,0.09-0.98-0.05-1.48c-0.14-0.49-0.36-0.77-0.66-0.84
			c-0.38-0.09-0.74,0.06-1.07,0.45c-0.33,0.39-0.55,0.83-0.66,1.32c-0.15,0.67-0.15,1.2,0,1.61c0.15,0.4,0.42,0.65,0.8,0.73
			c0.29,0.07,0.6-0.05,0.92-0.34C188.08,155.42,188.32,154.94,188.47,154.28z M192.66,158.38c0.13-0.6,0.13-1.11-0.02-1.53
			c-0.15-0.42-0.4-0.67-0.76-0.75c-0.4-0.09-0.76,0.02-1.07,0.34c-0.32,0.32-0.54,0.77-0.67,1.37c-0.15,0.67-0.15,1.2,0,1.61
			c0.15,0.4,0.43,0.65,0.83,0.74c0.36,0.08,0.69-0.03,1-0.33C192.28,159.53,192.51,159.04,192.66,158.38z"/>
	</g>
</g>
</svg>
